<svg xmlns="http://www.w3.org/2000/svg" width="256" height="256"><path fill-opacity=".016" d="M0 128.004v128.004l128.25-.254 128.25-.254.254-127.75L257.008 0H0v128.004m.485.496c0 70.4.119 99.053.265 63.672.146-35.38.146-92.98 0-128C.604 29.153.485 58.1.485 128.5" fill="#00247D" fill-rule="evenodd"/><path fill-opacity=".326" d="M105.922 1.492C54.214 11.264 15.946 47.782 2.693 100 .847 107.271.535 111.319.535 128c0 16.681.312 20.729 2.158 28 3.328 13.112 7.921 24.909 13.485 34.633C34.659 222.934 62.579 243.81 100 253.307c7.271 1.846 11.319 2.158 28 2.158 16.681 0 20.729-.312 28-2.158 50.006-12.692 85.337-47.928 97.066-96.807 1.056-4.4 1.923-9.211 1.927-10.691.004-1.48.457-2.969 1.007-3.309.595-.368 1-6.697 1-15.618 0-9.745-.35-14.784-1-14.382-.576.356-1.003-.574-1.007-2.191-.004-1.545-.871-6.409-1.927-10.809-11.679-48.67-47.127-84.157-96.566-96.672-10.644-2.694-39.376-3.453-50.578-1.336m74.487 51.885c-.291.757-.389 3.57-.219 6.25.283 4.449.528 4.873 2.81 4.873 2.368 0 2.516-.329 2.798-6.25.292-6.128.247-6.25-2.282-6.25-1.418 0-2.817.62-3.107 1.377m-12.798 5.195c-1.257 3.274 4.753 9.798 8.531 9.26 3.449-.49 3.378-3.17-.191-7.235-3.348-3.813-7.287-4.769-8.34-2.025m23.529 1.783c-3.621 3.736-3.887 6.962-.614 7.434 2.607.375 8.79-5.902 8.307-8.433-.602-3.158-4.104-2.703-7.693.999m.222 11.145c-1.328 3.46.382 4.613 6.376 4.3 5.456-.284 5.779-.446 6.078-3.05.315-2.734.281-2.75-5.781-2.75-4.498 0-6.249.394-6.673 1.5m-20.381 9.019C166.894 84.634 163.07 88 162.483 88c-.587 0-3.054-2.025-5.483-4.5-5.642-5.749-8.896-5.984-13.987-1.012l-3.572 3.487-5.081-1.93C105.985 73.263 71.428 87.315 58.232 115 53.354 125.234 52 131.281 52 142.839c0 17.101 5.805 31.087 17.939 43.222C82.074 198.195 96.06 204 113.161 204c11.558 0 17.605-1.354 27.839-6.232 11.745-5.598 21.967-15.778 27.883-27.768 7.488-15.176 8.737-31.455 3.58-46.663l-2.319-6.837 3.428-3.542c4.905-5.068 4.654-8.339-1.072-13.958-2.475-2.429-4.5-4.875-4.5-5.436 0-.561 3.387-4.427 7.528-8.592l7.527-7.572-2.322-2.181-2.321-2.181-7.431 7.481m17.686-2.852c-2.847 2.846 4.199 12.145 8.233 10.865 3.105-.986 2.584-4.248-1.3-8.132-3.266-3.266-5.514-4.152-6.933-2.733M91.2 107.058c-9.166 4.58-14.746 12.312-15.896 22.026C74.671 134.423 76.555 138 80 138c2.359 0 4.996-3.191 5.022-6.079.069-7.615 7.916-16.357 15.686-17.476 5.471-.787 8.292-2.795 8.292-5.9 0-3.284-1.954-4.545-7.04-4.545-3.175 0-6.573.966-10.76 3.058M.402 128c0 8.525.154 12.012.341 7.75.188-4.262.188-11.237 0-15.5-.187-4.263-.341-.775-.341 7.75" fill="#00247D" fill-rule="evenodd"/><path fill-opacity=".509" d="M108.53 1.587C90.49 4.391 71.763 11.744 56.279 22.105 46.398 28.717 28.81 46.258 22.293 56c-29.533 44.153-29.533 99.847 0 144 6.446 9.636 24.071 27.261 33.707 33.707 44.131 29.519 99.869 29.519 144 0 9.636-6.446 27.261-24.071 33.707-33.707 10.408-15.56 18.048-34.779 20.298-51.062.642-4.641 1.578-9.219 2.081-10.174 1.115-2.119 1.232-23.079.125-22.395-.433.268-1.35-3.634-2.036-8.672-2.258-16.584-9.913-35.916-20.468-51.697-6.446-9.636-24.071-27.261-33.707-33.707-27.183-18.182-59.959-25.602-91.47-20.706m72.72 50.075c-1.634.66-1.675 11.513-.05 13.138 2.877 2.877 5.8-.486 5.8-6.671 0-6.03-1.804-8.059-5.75-6.467m-12.526 5.472c-2.747 1.538-2.027 4.165 2.302 8.391 3.299 3.221 4.338 3.736 5.75 2.846 2.767-1.742 2.617-4.35-.434-7.556-3.796-3.99-5.551-4.837-7.618-3.681m22.078 2.829c-4.102 4.102-4.561 6.53-1.588 8.402 1.967 1.239 5.752-1.099 9.151-5.652 1.931-2.586 1.935-2.724.157-4.689-2.51-2.773-3.176-2.606-7.72 1.939m.769 10.608c-3.335 3.336-.805 5.429 6.562 5.429 4.899 0 5.827-.298 6.382-2.048.358-1.126.108-2.701-.555-3.5-1.671-2.014-10.339-1.931-12.389.119m-21.536 9.894l-7.416 7.465-5.249-4.965c-6.417-6.068-8.876-6.31-14.304-1.405l-3.94 3.559-6.813-2.154c-31.58-9.984-66.439 7.356-77.383 38.493-7.993 22.741-2.674 47.161 13.992 64.249 21.907 22.46 55.682 25.309 81.513 6.876 21.121-15.071 30.539-43.783 22.6-68.896l-2.154-6.813 3.559-3.94c4.916-5.441 4.673-7.921-1.397-14.258l-4.957-5.176 7.656-7.723 7.657-7.723-2.374-2.527c-1.305-1.39-2.644-2.527-2.974-2.527-.331 0-3.938 3.359-8.016 7.465M188.2 78.2c-1.906 1.906-1.452 3.148 2.592 7.097 4.247 4.147 6.631 4.65 8.194 1.729.88-1.644.449-2.646-2.581-6-3.729-4.127-6.091-4.94-8.205-2.826m-93.291 27.354c-9.258 2.851-17.87 13.333-19.414 23.628-.587 3.916-.373 4.94 1.406 6.719C78.056 137.056 79.45 138 80 138c1.922 0 5-4.021 5-6.532 0-3.119 2.488-9.245 4.788-11.788 2.532-2.799 8.705-5.68 12.172-5.68 3.143 0 7.04-2.958 7.04-5.345 0-2.237-3.476-4.659-6.579-4.585-1.606.038-4.987.706-7.512 1.484M.378 128c0 6.325.163 8.912.361 5.75.198-3.163.198-8.338 0-11.5-.198-3.163-.361-.575-.361 5.75" fill="#00247D" fill-rule="evenodd"/><path fill-opacity=".579" d="M115.265.972C58.709 7.383 14.59 47.541 2.881 103.266c-3 14.276-3 35.192 0 49.468 9.453 44.987 39.981 80.207 82.885 95.624 26.059 9.363 58.409 9.363 84.468 0 42.78-15.373 73.728-51.007 82.75-95.281 1.109-5.44 2.016-11.931 2.016-14.425 0-2.494.45-4.812 1-5.152.55-.34 1-3.318 1-6.618 0-3.745-.376-5.768-1-5.382-.612.378-1-1.187-1-4.034 0-2.558-.907-9.103-2.016-14.543-10.305-50.571-49.425-89.729-99.75-99.849C141.643.743 125.278-.163 115.265.972M180.2 52.2c-1.472 1.472-1.58 9.222-.165 11.866 1.145 2.139 4.441 2.591 5.571.763.478-.774.998-.428 1.535 1.024.447 1.207 1.799 2.559 3.006 3.006 1.452.537 1.798 1.057 1.024 1.535-1.863 1.152-1.359 4.435.863 5.624 3.074 1.645 11.045.827 12.358-1.268 1.91-3.046-.44-5.187-6.311-5.75l-5.215-.5 3.567-3.446c3.722-3.596 4.394-5.827 2.367-7.854-2.007-2.007-4.039-1.372-8.008 2.503L187 63.406v-5.003c0-5.156-1.214-7.403-4-7.403-.88 0-2.14.54-2.8 1.2m-12 5c-2.184 2.184-1.29 5.514 2.335 8.696 4.074 3.578 6.939 3.955 8.46 1.114.899-1.68.417-2.692-3.093-6.5-4.347-4.716-5.71-5.302-7.702-3.31m1.803 23.297l-7.447 7.497-5.059-4.997c-6.235-6.157-8.898-6.436-14.358-1.504l-3.866 3.493-5.887-2.111c-8.239-2.955-25.545-3.704-34.405-1.488C76.47 87.016 57.777 105.786 52.557 128c-9.19 39.108 20.789 76.97 60.943 76.97 4.4 0 10.925-.687 14.5-1.527 22.214-5.22 40.984-23.913 46.613-46.424 2.216-8.86 1.467-26.166-1.488-34.405l-2.111-5.887 3.493-3.866c4.977-5.509 4.687-8.26-1.515-14.369l-5.008-4.932 7.508-7.552c4.13-4.154 7.508-8.035 7.508-8.625 0-1.279-3.26-4.383-4.604-4.383-.52 0-4.297 3.374-8.393 7.497m18.721-3.363c-2.954 1.654-2.036 5.351 2.302 9.271 3.404 3.075 4.34 3.469 6.057 2.551 3.448-1.846 3.395-3.866-.201-7.604-4.369-4.542-6.037-5.404-8.158-4.218m-90.577 27.941C85.612 107.54 76 119.057 76 131.611c0 3.376.413 4.385 2 4.889 3.881 1.232 5.74-.277 6.488-5.27.911-6.071 2.58-9.205 6.948-13.039 3.215-2.824 5.422-3.72 13.814-5.61 2.237-.504 2.75-1.168 2.75-3.565 0-1.889-.694-3.317-1.934-3.981-2.147-1.149-1.867-1.15-7.919.04M.32 128c0 3.575.182 5.037.403 3.25.222-1.787.222-4.713 0-6.5-.221-1.787-.403-.325-.403 3.25" fill="#00247D" fill-rule="evenodd"/></svg>